<svg width="184" height="184" viewBox="0 0 184 184" fill="none" xmlns="http://www.w3.org/2000/svg">
<path fill-rule="evenodd" clip-rule="evenodd" d="M79.4031 64.6251C77.6352 63.5644 75.4335 63.5366 73.6394 64.5524C71.8454 65.5682 70.7364 67.4705 70.7364 69.5321V115.312C70.7364 117.374 71.8454 119.276 73.6394 120.292C75.4335 121.308 77.6352 121.28 79.4031 120.219L117.553 97.3291C119.277 96.2949 120.331 94.4322 120.331 92.4221C120.331 90.412 119.277 88.5493 117.553 87.5151L79.4031 64.6251ZM103.486 92.4221L82.1814 105.205V79.6391L103.486 92.4221Z" fill="white"/>
<path fill-rule="evenodd" clip-rule="evenodd" d="M130.103 36.2751C104.553 34.2761 78.8855 34.2761 53.3353 36.2751L36.2387 37.6126C25.8424 38.426 17.3373 46.2178 15.6187 56.5033C11.6453 80.2843 11.6453 104.56 15.6187 128.341C17.3373 138.626 25.8424 146.418 36.2388 147.232L53.3353 148.569C78.8855 150.568 104.553 150.568 130.103 148.569L147.2 147.232C157.596 146.418 166.101 138.626 167.82 128.341C171.793 104.56 171.793 80.2843 167.82 56.5033C166.101 46.2178 157.596 38.426 147.2 37.6126L130.103 36.2751ZM54.228 47.6852C79.184 45.7328 104.254 45.7328 129.21 47.6852L146.307 49.0228C151.462 49.4261 155.679 53.2895 156.531 58.3895C160.296 80.9217 160.296 103.922 156.531 126.455C155.679 131.555 151.462 135.418 146.307 135.821L129.21 137.159C104.254 139.111 79.1839 139.111 54.228 137.159L37.1314 135.821C31.9765 135.418 27.7594 131.555 26.9073 126.455C23.1425 103.922 23.1425 80.9217 26.9073 58.3895C27.7594 53.2895 31.9765 49.4261 37.1314 49.0228L54.228 47.6852Z" fill="white"/>
</svg>
