<svg width="184" height="184" viewBox="0 0 184 184" fill="none" xmlns="http://www.w3.org/2000/svg">
<path fill-rule="evenodd" clip-rule="evenodd" d="M80.8668 29.7614C88.379 22.2491 98.5678 18.0288 109.192 18.0288H129.793C132.953 18.0288 135.515 20.5909 135.515 23.7513V51.2193C135.515 54.3797 132.953 56.9418 129.793 56.9418H109.192C108.888 56.9418 108.597 57.0624 108.382 57.277C108.168 57.4916 108.047 57.7828 108.047 58.0863V72.9648H129.793C131.555 72.9648 133.219 73.7767 134.303 75.1656C135.388 76.5545 135.772 78.3657 135.344 80.0752L128.477 107.543C127.84 110.091 125.552 111.878 122.926 111.878H108.047V161.091C108.047 164.252 105.485 166.814 102.325 166.814H74.8567C71.6963 166.814 69.1342 164.252 69.1342 161.091V111.878H54.2557C51.0953 111.878 48.5332 109.316 48.5332 106.155V78.6873C48.5332 75.5268 51.0953 72.9648 54.2557 72.9648H69.1342V58.0863C69.1342 47.4624 73.3545 37.2736 80.8668 29.7614ZM109.192 29.4738C101.603 29.4738 94.3255 32.4883 88.9596 37.8542C83.5937 43.2201 80.5792 50.4978 80.5792 58.0863V78.6873C80.5792 81.8477 78.0172 84.4098 74.8567 84.4098H59.9782V100.433H74.8567C78.0172 100.433 80.5792 102.995 80.5792 106.155V155.369H96.6022V106.155C96.6022 102.995 99.1643 100.433 102.325 100.433H118.458L122.463 84.4098H102.325C99.1643 84.4098 96.6022 81.8477 96.6022 78.6873V58.0863C96.6022 54.7473 97.9286 51.5452 100.29 49.1842C102.651 46.8232 105.853 45.4968 109.192 45.4968H124.07V29.4738H109.192Z" fill="white"/>
</svg>
